<?xml version="1.0" encoding="UTF-8"?>
<svg width="256" height="256" version="1.1" xmlns="http://www.w3.org/2000/svg">
    <g transform="translate(0 -796.36)">
        <path d="m0 796.36h256v256h-256z" fill="#ffd500"/>
        <text x="145.91772" y="961.54572" fill="#ffffff" font-family="Dashicons" font-size="6.7606px" letter-spacing="0px" stroke-width=".56338px" word-spacing="0px" style="line-height:0%" xml:space="preserve"><tspan x="145.91772" y="961.54572" font-size="166.5px" stroke-width=".56338px" style="line-height:1.25"> </tspan></text>
        <path d="m190.29 924.36a62.289 62.289 0 0 1-62.289 62.289 62.289 62.289 0 0 1-62.289-62.289 62.289 62.289 0 0 1 62.289-62.289 62.289 62.289 0 0 1 62.289 62.289z" fill="#fff5c2" stroke-dashoffset="17" stroke-linecap="round" stroke-linejoin="round" stroke-width="5.8366" style="paint-order:markers stroke fill"/>
        <g fill="#3f3c3c" stroke-width="5.4406" aria-label="">
            <path d="m96.263 946.74h63.473q4.1654-5.3556 6.5457-11.901 2.3802-6.5457 2.3802-13.488 0-11.108-5.5539-20.43-5.3556-9.3226-14.678-14.678-9.3226-5.5539-20.43-5.5539-11.108 0-20.43 5.5539-9.3226 5.3555-14.877 14.678-5.3555 9.3226-5.3555 20.43 0 6.9424 2.3802 13.488 2.3802 6.5457 6.5457 11.901zm31.737-61.093q2.1819 0 3.5704 1.5868 1.5868 1.3885 1.5868 3.5704t-1.5868 3.7687q-1.3885 1.3885-3.5704 1.3885t-3.7687-1.3885q-1.3885-1.5868-1.3885-3.7687t1.3885-3.5704q1.5868-1.5868 3.7687-1.5868zm-20.232 10.314q1.9835 0 3.372 1.5868 1.5868 1.3885 1.5868 3.5704 0 1.9835-1.5868 3.5704-1.3885 1.3885-3.5704 1.3885-1.9835 0-3.5704-1.3885-1.3885-1.5868-1.3885-3.5704 0-2.1819 1.3885-3.5704 1.5868-1.5868 3.7687-1.5868zm40.464 0q2.1819 0 3.5704 1.5868 1.5868 1.3885 1.5868 3.5704 0 1.9835-1.5868 3.5704-1.3885 1.3885-3.5704 1.3885-1.9835 0-3.5704-1.3885-1.3885-1.5868-1.3885-3.5704 0-2.1819 1.3885-3.5704 1.5868-1.5868 3.5704-1.5868zm-27.174 28.166 17.058-23.207v30.546q0 4.1654-2.9753 7.1407t-7.1407 2.9753-7.1407-2.9753-2.9753-7.1407q0-4.3638 3.1737-7.3391zm-23.604-7.9341q2.1819 0 3.5704 1.5868 1.5868 1.3885 1.5868 3.5704 0 1.9835-1.5868 3.5704-1.3885 1.3885-3.5704 1.3885-1.9835 0-3.5704-1.3885-1.3885-1.5868-1.3885-3.5704 0-2.1819 1.3885-3.5704 1.5868-1.5868 3.5704-1.5868zm61.093 0q1.9835 0 3.372 1.5868 1.5868 1.3885 1.5868 3.5704 0 1.9835-1.5868 3.5704-1.3885 1.3885-3.5704 1.3885-1.9835 0-3.5704-1.3885-1.3885-1.5868-1.3885-3.5704 0-2.1819 1.3885-3.5704 1.5868-1.5868 3.7687-1.5868zm-25.389 15.273q0-2.1819-1.5868-3.5704-1.3885-1.5868-3.5704-1.5868t-3.7687 1.5868q-1.3885 1.3885-1.3885 3.5704 0 1.9835 1.3885 3.5704 1.5868 1.3885 3.7687 1.3885t3.5704-1.3885q1.5868-1.5868 1.5868-3.5704z"/>
        </g>
    </g>
</svg>
